<svg xmlns="http://www.w3.org/2000/svg" viewBox="0 151 226 78.2"><path d="M36.6 199.6l-15.3-28.4h-9l20.3 37.7-2.7 5.9c-.5.8-.8 1.5-1.2 2.3-.5.8-.8 1.5-1.4 2.3-.6.8-1.2 1.4-1.7 1.7-.6.5-1.4.8-2.1.8s-1.4 0-1.7-.2c-.5-.2-.8-.5-1.4-.6-.5-.2-.8-.5-1.4-.6-.6-.2-1.2-.2-2-.2s-1.4.2-2 .5c-.6.2-1.2.6-1.5.9-.5.5-.8.8-.9 1.4-.2.6-.5 1.2-.5 1.5 0 .8.2 1.4.6 2 .5.6.8.9 1.4 1.5.6.6 1.4.8 2.1.9.8.2 1.5.5 2.6.5 1.4 0 2.6-.2 3.8-.8 1.2-.6 2.6-1.2 3.8-2.1 1.4-.9 2.6-2.1 3.5-3.5 1.2-1.5 2.1-3 2.9-5L53 171.5h-4.1l-12.3 28.1zm78.5-25.7c-.9-1.2-2.1-2.1-3.5-2.7-1.4-.8-2.7-.9-4.2-.9s-3 .2-4.7.8c-1.5.5-3 .9-4.4 1.7-1.4.8-2.7 1.5-3.8 2.7-1.2.9-2.1 2.1-2.7 3.3-.2-1.2-.8-2.3-1.5-3.3-.8-.9-1.5-2-2.7-2.7-.9-.8-2.1-1.4-3.3-1.7-1.2-.5-2.3-.6-3.6-.6-1.2 0-2.6.2-3.8.8-1.4.5-2.7.9-4.1 1.7-1.4.8-2.7 1.5-3.8 2.7-1.4.9-2.3 2.1-3.5 3v-9.2c0-.2-.2-.5-.5-.5-4.2 0-6.5 1.7-7.1 2.6-.2.2-.2.5-.2.6v38.6H66v-29.4c.6-.8 1.4-1.5 2.3-2.1.8-.8 1.7-1.4 2.9-1.7.9-.6 2.1-.9 3-1.2 1.2-.5 2.1-.5 3-.5.9 0 2 .2 2.7.8.8.5 1.5.9 2.3 1.7.8.8 1.2 1.5 1.5 2.7.5.9.6 2.1.6 3v27H92v-29.4c.6-.8 1.2-1.5 2-2.1.8-.8 1.7-1.4 2.7-1.7.9-.6 2.1-.9 3.3-1.2 1.2-.5 2.3-.5 3.3-.5.9 0 2 .2 2.7.8.8.5 1.5.9 2.3 1.7.6.8 1.2 1.5 1.5 2.7.5.9.6 2.1.6 3v26.7h7.8V183c0-1.7-.2-3.3-.8-4.8-.3-1.9-1.1-3.2-2.3-4.3zm69.2 0c-.9-1.2-2.1-2.1-3.5-2.7-1.4-.8-2.7-.9-4.2-.9s-3 .2-4.7.8c-1.5.5-3 .9-4.4 1.7s-2.7 1.5-3.8 2.7c-1.2.9-2.1 2.1-2.7 3.3-.2-1.2-.8-2.3-1.5-3.3-.8-.9-1.5-2-2.7-2.7-.9-.8-2.1-1.4-3.3-1.7-1.2-.5-2.3-.6-3.6-.6-1.2 0-2.6.2-3.8.8-1.4.5-2.7.9-4.1 1.7-1.4.8-2.7 1.5-3.8 2.7-1.2 1.2-2.3 2.1-3.5 3v-9.2c0-.2-.2-.5-.5-.5-4.2 0-6.5 1.7-7.1 2.6-.2.2-.2.5-.2.6v38.6h7.8v-29.4c.6-.8 1.4-1.5 2.3-2.1.8-.8 1.7-1.4 2.9-1.7.9-.6 2.1-.9 3-1.2 1.2-.5 2.1-.5 3-.5s2 .2 2.7.8c.8.5 1.5.9 2.3 1.7.8.8 1.2 1.5 1.5 2.7.5.9.6 2.1.6 3v27h7.8v-29.4c.6-.8 1.2-1.5 2-2.1.8-.8 1.7-1.4 2.7-1.7.9-.6 2.1-.9 3.3-1.2 1.2-.5 2.3-.5 3.3-.5.9 0 2 .2 2.7.8.8.5 1.5.9 2.3 1.7.6.8 1.2 1.5 1.5 2.7.5.9.6 2.1.6 3v26.7h7.8V183c0-1.7-.2-3.3-.8-4.8-.3-1.9-1-3.2-1.9-4.3zm40.3 2.6c-.6-1.4-1.4-2.3-2.3-3.3-1.2-.9-2.6-1.5-4.4-2.1-2-.6-4.1-.8-6.5-.8-2.1 0-4.2.2-6.2.8-2 .6-3.6 1.2-5.1 2-1.5.8-2.7 1.7-3.5 2.9-.8 1.2-1.4 2.3-1.4 3.6 0 .8 0 1.4.5 2 .2.6.6.9.8 1.5.5.5.8.8 1.4.9.6.2 1.2.5 1.7.5.8 0 1.5-.2 2-.5.6-.5.9-.8 1.2-1.2.5-.6.6-.9.6-1.7 0-.6.2-1.4.2-2 0-.8 0-1.5.2-2.3s.6-1.4.9-2c.5-.6 1.2-.9 2-1.4.8-.5 2-.6 3.3-.6 1.2 0 2.3.2 3.3.6.9.5 1.7.9 2.6 1.5.8.8 1.2 1.7 1.5 3 .5 1.4.6 2.7.6 4.7v2.6c-1.7.5-3.6.9-5.4 1.5-2 .6-3.6 1.2-5.4 1.7-1.7.8-3.5 1.4-5 2.3-1.5.8-2.9 1.7-4.1 2.9-1.2 1.2-2.1 2.3-2.7 3.6-.8 1.4-.9 2.9-.9 4.7 0 1.4.2 2.7.8 3.8.5 1.2 1.2 2.3 2.1 3 .9.9 2 1.5 3.3 2.1 1.4.6 2.7.8 4.2.8 1.7 0 3-.2 4.4-.6 1.4-.5 2.6-.9 3.5-1.5.9-.6 2.1-1.4 2.9-2.1.9-.8 1.7-1.5 2.7-2.1v5.4h7.8V181c-.8-1.8-1-3.2-1.6-4.5zm-7 25.8c-.8.6-1.5 1.2-2.3 1.7-.8.6-1.5.9-2.3 1.4-.8.5-1.5.8-2.3.9-.8.2-1.5.5-2.6.5-.8 0-1.5-.2-2.6-.6-.8-.5-1.5-.9-2.1-1.5-.6-.6-1.2-1.4-1.5-2.3-.5-.8-.6-1.7-.6-2.7 0-.9.2-2 .8-2.7.5-.8 1.2-1.7 2-2.6.8-.8 1.7-1.5 2.9-2.1.9-.8 2.1-1.4 3.3-2 1.2-.6 2.3-1.2 3.6-1.5 1.2-.5 2.3-.9 3.5-1.4l.2 14.9zM7.2 151c-4.2 0-6.5 1.7-7.1 2.6-.1.1-.1.4-.1.5v56.7h7.8v-59.7c-.1-.1-.3-.1-.6-.1z" fill="#363636"/></svg>